<svg width="498" height="777" viewBox="0 0 498 777" fill="none" xmlns="http://www.w3.org/2000/svg">
<g clip-path="url(#clip0_2326_6382)">
<g filter="url(#filter0_bii_2326_6382)">
<rect width="264.327" height="419.347" rx="19.3145" transform="matrix(-0.475931 -0.879483 0.760406 -0.649448 178.894 776.099)" fill="#F591CE"/>
<rect width="264.327" height="419.347" rx="19.3145" transform="matrix(-0.475931 -0.879483 0.760406 -0.649448 178.894 776.099)" fill="url(#paint0_radial_2326_6382)"/>
</g>
<rect opacity="0.48" width="54.8564" height="54.8564" rx="27.4282" transform="matrix(0.760406 -0.649448 0.475931 0.879483 301.564 364.726)" fill="#F591CE"/>
<rect opacity="0.7" width="54.8564" height="54.8564" rx="27.4282" transform="matrix(0.760406 -0.649448 0.475931 0.879483 326.746 343.218)" fill="#FF00A8"/>
<g filter="url(#filter1_i_2326_6382)">
<rect width="55.6691" height="39.8217" rx="9.01345" transform="matrix(0.760406 -0.649448 0.475931 0.879483 132.302 590.022)" fill="url(#paint1_linear_2326_6382)"/>
</g>
<path d="M138.812 602.186L153.207 589.892C152.367 585.876 151.319 577.017 153.854 573.705C155.195 573.212 158.63 572.623 161.653 574.21M144.888 613.413L159.282 601.119C162.291 606.679 168.779 607.079 171.646 606.584C174.516 602.152 173.767 593.264 173.034 589.374L187.268 577.217M182.639 568.664L168.405 580.82C167.006 579.974 164.363 577.524 164.981 574.494" stroke="url(#paint2_linear_2326_6382)" stroke-width="0.772581"/>
<path d="M196.979 558.428C198.074 559.06 200.226 561.089 200.073 564.146M199.266 553.47C200.957 554.508 204.388 557.926 204.584 563.298M201.118 548.753C203.363 550.188 208.005 554.968 208.612 562.601M203.444 544.284C206.198 545.895 211.92 551.598 212.775 561.528" stroke="white" stroke-width="2.8328" stroke-linecap="round" stroke-linejoin="round"/>
<path d="M202.702 711.204C202.048 711.763 201.406 712.067 200.775 712.118C200.142 712.164 199.549 711.989 198.996 711.592C198.443 711.195 197.957 710.608 197.536 709.83C197.115 709.053 196.859 708.268 196.769 707.476C196.678 706.684 196.768 705.929 197.037 705.21C197.304 704.488 197.765 703.848 198.419 703.289C199.182 702.637 199.929 702.331 200.658 702.372C201.385 702.409 202.044 702.731 202.635 703.338L202.062 704.128C201.596 703.646 201.088 703.384 200.535 703.341C199.983 703.298 199.412 703.529 198.822 704.033C198.308 704.472 197.954 704.973 197.76 705.534C197.565 706.096 197.513 706.694 197.602 707.327C197.693 707.955 197.906 708.588 198.243 709.226C198.583 709.862 198.968 710.348 199.399 710.685C199.833 711.019 200.297 711.176 200.789 711.157C201.282 711.131 201.786 710.899 202.3 710.46C202.89 709.956 203.271 709.374 203.442 708.713C203.612 708.049 203.605 707.358 203.421 706.64L204.217 706.261C204.449 707.174 204.446 708.064 204.208 708.931C203.968 709.795 203.466 710.552 202.702 711.204ZM206.489 707.739L203.405 702.04L204.007 701.526L204.749 702.898L204.534 702.82C204.497 702.604 204.485 702.388 204.497 702.172C204.507 701.953 204.539 701.753 204.593 701.573C204.65 701.334 204.746 701.108 204.88 700.896C205.012 700.68 205.162 700.493 205.33 700.334C205.496 700.172 205.661 700.051 205.827 699.971L206.221 700.699C206.013 700.8 205.81 700.955 205.613 701.165C205.415 701.375 205.272 701.641 205.184 701.963C205.1 702.251 205.073 702.534 205.103 702.812C205.131 703.086 205.195 703.351 205.293 703.606C205.389 703.858 205.498 704.097 205.62 704.322L207.159 707.166L206.489 707.739ZM211.788 706.917L211.122 703.111L211.616 703.985L206.142 699.702L206.854 699.094L211.397 702.706L211.105 702.955L209.966 696.437L210.65 695.852L212.458 706.344L211.788 706.917ZM216.448 699.457C215.87 699.951 215.316 700.213 214.786 700.244C214.258 700.272 213.813 700.066 213.45 699.625L214.063 698.909C214.311 699.17 214.617 699.287 214.98 699.26C215.345 699.226 215.718 699.046 216.102 698.719C216.476 698.399 216.722 698.057 216.841 697.694C216.958 697.326 216.932 696.986 216.762 696.673C216.667 696.497 216.555 696.384 216.426 696.335C216.298 696.28 216.104 696.294 215.843 696.378C215.581 696.463 215.207 696.618 214.72 696.843C214.197 697.085 213.771 697.243 213.442 697.317C213.114 697.392 212.846 697.384 212.641 697.292C212.434 697.196 212.258 697.015 212.113 696.747C211.938 696.424 211.864 696.073 211.89 695.695C211.915 695.314 212.032 694.937 212.239 694.564C212.445 694.188 212.733 693.841 213.104 693.525C213.475 693.208 213.845 692.995 214.213 692.886C214.582 692.771 214.924 692.762 215.239 692.859C215.553 692.955 215.817 693.154 216.029 693.457L215.422 694.184C215.196 693.888 214.908 693.748 214.56 693.762C214.213 693.77 213.852 693.93 213.478 694.239C213.122 694.528 212.88 694.848 212.75 695.2C212.619 695.549 212.626 695.859 212.773 696.13C212.855 696.281 212.965 696.378 213.103 696.419C213.239 696.457 213.436 696.435 213.694 696.354C213.956 696.269 214.31 696.118 214.757 695.901C215.283 695.648 215.715 695.485 216.053 695.411C216.392 695.338 216.67 695.355 216.888 695.462C217.106 695.569 217.295 695.771 217.455 696.066C217.746 696.604 217.802 697.176 217.623 697.782C217.445 698.382 217.053 698.94 216.448 699.457ZM222.003 694.488C221.763 694.792 221.503 695.052 221.225 695.269C220.949 695.484 220.673 695.622 220.395 695.684C220.121 695.744 219.86 695.694 219.614 695.534C219.411 695.398 219.247 695.227 219.122 695.02C218.998 694.807 218.861 694.562 218.71 694.284L215.886 689.065L216.552 688.496L219.359 693.683C219.489 693.923 219.599 694.122 219.689 694.281C219.781 694.434 219.889 694.548 220.014 694.621C220.251 694.764 220.5 694.756 220.762 694.599C221.027 694.44 221.318 694.176 221.635 693.808L222.003 694.488ZM216.049 692.213L215.689 691.548L218.919 688.789L219.279 689.454L216.049 692.213ZM224.469 692.614C224.098 692.93 223.745 693.119 223.408 693.18C223.075 693.238 222.777 693.192 222.513 693.042C222.25 692.892 222.036 692.665 221.872 692.363C221.705 692.053 221.615 691.744 221.603 691.435C221.593 691.12 221.643 690.813 221.752 690.513C221.864 690.212 222.024 689.919 222.23 689.634C222.441 689.351 222.683 689.054 222.956 688.744C223.23 688.428 223.501 688.127 223.769 687.842C224.038 687.55 224.271 687.292 224.469 687.066L224.324 687.437C224.028 686.867 223.708 686.53 223.364 686.428C223.02 686.326 222.603 686.485 222.113 686.903C221.775 687.191 221.537 687.523 221.398 687.899C221.262 688.273 221.25 688.689 221.361 689.15L220.589 689.485C220.425 688.879 220.437 688.29 220.626 687.718C220.814 687.145 221.181 686.626 221.725 686.161C222.175 685.777 222.61 685.549 223.03 685.479C223.451 685.402 223.827 685.493 224.158 685.75C224.308 685.864 224.448 686.015 224.576 686.203C224.705 686.392 224.826 686.591 224.941 686.802L226.857 690.343L226.259 690.854L225.485 689.424L225.704 689.36C225.801 689.992 225.743 690.587 225.529 691.145C225.315 691.703 224.962 692.193 224.469 692.614ZM224.184 691.877C224.498 691.61 224.736 691.311 224.9 690.981C225.064 690.65 225.156 690.312 225.177 689.964C225.196 689.614 225.15 689.278 225.039 688.956C224.976 688.742 224.887 688.525 224.772 688.304C224.656 688.08 224.568 687.913 224.509 687.804L224.847 687.739C224.638 687.969 224.409 688.216 224.16 688.48C223.915 688.741 223.675 689.005 223.441 689.271C223.21 689.535 223.009 689.787 222.836 690.027C222.721 690.192 222.621 690.373 222.536 690.569C222.449 690.762 222.4 690.963 222.389 691.173C222.381 691.38 222.432 691.586 222.543 691.79C222.632 691.955 222.754 692.086 222.908 692.181C223.064 692.273 223.249 692.303 223.463 692.27C223.679 692.234 223.92 692.103 224.184 691.877ZM228.136 689.251L223.938 681.494L224.609 680.921L228.806 688.678L228.136 689.251ZM230.174 687.51L226.062 679.911L228.599 677.745C228.967 677.43 229.335 677.244 229.704 677.186C230.073 677.128 230.415 677.184 230.728 677.353C231.04 677.519 231.294 677.781 231.488 678.14C231.709 678.548 231.811 678.992 231.796 679.474C231.779 679.951 231.645 680.387 231.396 680.78L231.246 680.529C231.748 680.306 232.216 680.267 232.65 680.411C233.084 680.555 233.436 680.877 233.706 681.376C233.944 681.816 234.069 682.265 234.081 682.722C234.091 683.177 233.997 683.615 233.798 684.037C233.599 684.458 233.307 684.834 232.921 685.164L230.174 687.51ZM230.447 686.189L232.354 684.56C232.621 684.332 232.832 684.072 232.986 683.781C233.138 683.487 233.22 683.185 233.231 682.877C233.245 682.567 233.174 682.267 233.018 681.979C232.866 681.698 232.673 681.492 232.438 681.363C232.204 681.234 231.953 681.186 231.686 681.219C231.42 681.245 231.164 681.363 230.918 681.574L228.888 683.308L230.447 686.189ZM228.491 682.574L230.348 680.989C230.557 680.809 230.719 680.591 230.834 680.334C230.946 680.073 231 679.803 230.996 679.524C230.995 679.242 230.926 678.975 230.789 678.721C230.594 678.363 230.328 678.163 229.991 678.122C229.656 678.079 229.323 678.199 228.991 678.482L227.134 680.068L228.491 682.574ZM237.266 681.685C236.895 682.002 236.541 682.19 236.205 682.251C235.872 682.309 235.573 682.263 235.309 682.113C235.046 681.963 234.832 681.736 234.668 681.434C234.501 681.124 234.411 680.815 234.4 680.506C234.389 680.191 234.439 679.884 234.548 679.584C234.661 679.283 234.82 678.99 235.026 678.705C235.238 678.422 235.48 678.125 235.752 677.815C236.026 677.499 236.297 677.198 236.565 676.913C236.834 676.621 237.068 676.363 237.266 676.137L237.12 676.508C236.824 675.938 236.504 675.601 236.16 675.499C235.816 675.397 235.399 675.556 234.909 675.974C234.571 676.262 234.333 676.594 234.194 676.97C234.058 677.344 234.046 677.76 234.157 678.221L233.385 678.556C233.221 677.95 233.234 677.361 233.422 676.789C233.61 676.216 233.977 675.697 234.521 675.232C234.971 674.848 235.406 674.62 235.826 674.55C236.247 674.473 236.623 674.564 236.954 674.821C237.104 674.935 237.244 675.086 237.372 675.274C237.501 675.463 237.622 675.662 237.737 675.873L239.653 679.414L239.055 679.925L238.281 678.495L238.5 678.431C238.598 679.063 238.539 679.658 238.326 680.216C238.112 680.774 237.758 681.264 237.266 681.685ZM236.981 680.948C237.294 680.681 237.532 680.382 237.696 680.052C237.86 679.721 237.952 679.383 237.973 679.035C237.993 678.685 237.946 678.349 237.835 678.027C237.772 677.813 237.684 677.596 237.569 677.375C237.452 677.151 237.364 676.984 237.305 676.875L237.643 676.81C237.434 677.04 237.205 677.287 236.957 677.551C236.711 677.812 236.471 678.076 236.237 678.342C236.007 678.606 235.805 678.858 235.632 679.098C235.517 679.263 235.417 679.444 235.332 679.64C235.245 679.833 235.196 680.034 235.185 680.244C235.177 680.451 235.229 680.657 235.339 680.861C235.428 681.026 235.55 681.157 235.704 681.252C235.861 681.344 236.046 681.374 236.259 681.341C236.475 681.305 236.716 681.174 236.981 680.948ZM244.399 675.36L242.826 672.453C242.654 672.136 242.472 671.868 242.277 671.648C242.081 671.425 241.871 671.264 241.649 671.166C241.428 671.062 241.197 671.033 240.955 671.08C240.717 671.124 240.468 671.257 240.21 671.477C239.973 671.68 239.788 671.907 239.657 672.158C239.529 672.406 239.451 672.673 239.424 672.959C239.397 673.239 239.421 673.532 239.494 673.84C239.567 674.148 239.691 674.464 239.866 674.788L239.326 675.071C239.01 674.487 238.833 673.921 238.794 673.373C238.755 672.825 238.836 672.316 239.036 671.847C239.236 671.378 239.536 670.972 239.938 670.629C240.233 670.377 240.518 670.211 240.795 670.129C241.074 670.045 241.338 670.028 241.587 670.077C241.839 670.124 242.075 670.224 242.295 670.375C242.513 670.523 242.714 670.709 242.897 670.933C243.079 671.154 243.239 671.392 243.378 671.649L245.074 674.784L244.399 675.36ZM240.836 678.404L237.752 672.705L238.359 672.186L239.118 673.59L239.187 673.532L241.511 677.827L240.836 678.404ZM246.254 673.776L242.146 666.174L242.822 665.597L245.335 670.241L246.049 665.619L246.943 664.855L246.176 669.676L250.328 670.297L249.352 671.131L245.449 670.452L246.934 673.196L246.254 673.776Z" fill="white"/>
</g>
<g clip-path="url(#clip1_2326_6382)">
<g filter="url(#filter2_bii_2326_6382)">
<rect width="264.327" height="419.347" rx="19.3145" transform="matrix(0.285354 -0.958422 0.824126 0.566406 0.0717773 253.936)" fill="#2E2EC8"/>
</g>
<g filter="url(#filter3_i_2326_6382)">
<rect width="55.6691" height="39.8217" rx="9.01345" transform="matrix(0.824126 0.566406 -0.285354 0.958422 90.2939 113.156)" fill="url(#paint3_linear_2326_6382)"/>
</g>
<path d="M86.3082 126.33L101.909 137.052C103.947 134.203 108.889 128.842 112.351 130.192C113.397 131.496 115.66 135.157 116.339 139.366M82.6656 138.564L98.2665 149.286C96.4626 155.345 99.7926 162.967 101.683 166.021C106.027 167.229 111.151 162.196 113.17 159.529L128.597 170.132M131.372 160.81L115.945 150.208C115.701 148.207 115.77 144.028 117.998 143.314" stroke="url(#paint4_linear_2326_6382)" stroke-width="0.772581"/>
<path d="M145.66 172.438C145.87 173.99 145.794 177.409 143.805 178.669M150.01 172.73C150.297 175.155 150.06 180.693 146.822 183.44M153.971 172.637C154.316 175.884 153.899 183.448 149.478 187.728M158.038 173.204C158.554 177.116 158.158 186.352 152.444 191.995" stroke="white" stroke-width="2.8328" stroke-linecap="round" stroke-linejoin="round"/>
<path d="M53.8096 250.862C53.0976 250.373 52.5364 249.77 52.1262 249.054C51.7192 248.34 51.4721 247.563 51.3848 246.722C51.3008 245.884 51.3866 245.036 51.6423 244.177C51.898 243.318 52.2607 242.66 52.7305 242.202C53.2036 241.747 53.7509 241.516 54.3725 241.509C54.9973 241.504 55.6658 241.747 56.3778 242.236C57.1953 242.798 57.8108 243.505 58.2242 244.357C58.641 245.212 58.8432 246.12 58.831 247.081L57.346 246.587C57.3636 245.994 57.257 245.452 57.026 244.961C56.7961 244.466 56.434 244.048 55.9395 243.708C55.4879 243.398 55.0756 243.255 54.7027 243.281C54.3331 243.308 54.0091 243.483 53.7308 243.804C53.4525 244.126 53.2277 244.574 53.0565 245.149C52.8853 245.724 52.8121 246.276 52.8371 246.806C52.862 247.336 52.9897 247.821 53.22 248.261C53.4537 248.703 53.7963 249.079 54.2479 249.39C54.7424 249.73 55.1879 249.867 55.5844 249.803C55.9809 249.738 56.3192 249.502 56.5995 249.094L57.8242 250.462C57.3571 251.111 56.7747 251.48 56.0772 251.568C55.383 251.659 54.6272 251.424 53.8096 250.862ZM58.1836 253.66L60.0327 247.45L61.2195 248.265L60.7675 249.783L60.6971 249.5C60.8303 249.332 60.9808 249.2 61.1487 249.103C61.3165 249.006 61.5017 248.958 61.704 248.959C61.86 248.955 62.0212 248.98 62.1877 249.035C62.3553 249.085 62.5216 249.16 62.6865 249.26C62.8526 249.355 63.013 249.47 63.1677 249.604L62.7328 251.065C62.6005 250.909 62.4325 250.773 62.229 250.656C62.03 250.538 61.8382 250.469 61.6537 250.448C61.4704 250.424 61.3032 250.445 61.1522 250.512C61.0023 250.575 60.8708 250.683 60.7577 250.837C60.6457 250.986 60.5544 251.179 60.4836 251.417L59.5385 254.591L58.1836 253.66ZM61.9266 259.558L63.9344 256.975L63.6666 257.955L63.3218 249.71L64.7162 250.669L64.8782 256.446L64.5617 256.229L67.5149 252.592L68.8599 253.516L63.1727 260.414L61.9266 259.558ZM69.7415 261.812C69.069 261.349 68.5776 260.799 68.2672 260.161C67.9613 259.521 67.8603 258.847 67.9642 258.138L69.4107 258.841C69.38 259.171 69.4357 259.484 69.5779 259.78C69.7233 260.079 69.9443 260.33 70.241 260.534C70.4849 260.702 70.6888 260.777 70.8527 260.76C71.0176 260.74 71.1292 260.632 71.1874 260.436C71.2239 260.314 71.2267 260.198 71.1956 260.089C71.1657 259.976 71.0693 259.819 70.9064 259.62C70.7467 259.422 70.4918 259.131 70.1415 258.748C69.7451 258.318 69.4407 257.933 69.2282 257.593C69.0158 257.253 68.8849 256.933 68.8358 256.631C68.7877 256.325 68.8111 256.014 68.9058 255.695C69.0245 255.297 69.2146 255.012 69.4761 254.84C69.7387 254.665 70.0516 254.608 70.4149 254.668C70.7826 254.727 71.1823 254.905 71.6142 255.202C72.0328 255.489 72.3814 255.819 72.66 256.19C72.9385 256.562 73.1356 256.954 73.2512 257.366C73.3701 257.78 73.3967 258.191 73.331 258.598L71.8708 257.941C71.9162 257.695 71.8847 257.454 71.7763 257.218C71.6679 256.982 71.4902 256.765 71.2432 256.568C71.0017 256.379 70.7908 256.28 70.6107 256.271C70.4338 256.265 70.3185 256.352 70.2649 256.533C70.2329 256.64 70.2374 256.751 70.2783 256.867C70.3226 256.985 70.4338 257.152 70.6121 257.367C70.7937 257.584 71.0739 257.897 71.4527 258.305C71.8216 258.706 72.1035 259.073 72.2984 259.406C72.4977 259.737 72.6191 260.056 72.6627 260.363C72.7075 260.666 72.6819 260.978 72.586 261.3C72.3965 261.937 72.0498 262.301 71.5458 262.394C71.0418 262.486 70.4403 262.292 69.7415 261.812ZM76.3187 266.124C75.9255 265.951 75.5526 265.736 75.2 265.48C74.8496 265.23 74.5542 264.941 74.314 264.615C74.0782 264.286 73.9328 263.921 73.8779 263.518C73.8305 263.144 73.8469 262.809 73.9271 262.513C74.0084 262.213 74.1044 261.878 74.2151 261.506L75.7937 256.204L77.1386 257.128L75.5875 262.338C75.5156 262.58 75.4521 262.799 75.3972 262.997C75.3468 263.193 75.3357 263.37 75.3641 263.528C75.4177 263.829 75.5719 264.078 75.8266 264.276C76.0813 264.474 76.3743 264.657 76.7056 264.825L76.3187 266.124ZM74.0107 258.511L74.3702 257.304L78.1678 259.914L77.8082 261.121L74.0107 258.511ZM78.9408 268.134C78.5584 267.871 78.2588 267.564 78.042 267.212C77.8297 266.858 77.6965 266.491 77.6425 266.113C77.593 265.732 77.6195 265.37 77.7223 265.024C77.8079 264.737 77.924 264.5 78.0706 264.315C78.2172 264.129 78.4013 264.004 78.6231 263.939C78.8493 263.873 79.1241 263.877 79.4474 263.952C79.6703 264.003 79.9282 264.091 80.2213 264.214C80.5143 264.336 80.8424 264.488 81.2057 264.668C81.5701 264.845 81.9708 265.04 82.4078 265.252L81.8308 265.23C81.9404 264.862 81.945 264.539 81.8447 264.263C81.7445 263.986 81.5163 263.725 81.1603 263.48C80.9625 263.344 80.7399 263.258 80.4925 263.222C80.2452 263.186 80.0364 263.281 79.8662 263.505L78.7834 262.221C79.0715 261.8 79.4497 261.557 79.9181 261.491C80.3865 261.425 80.9421 261.612 81.5849 262.054C82.0563 262.378 82.4498 262.75 82.7655 263.17C83.0812 263.591 83.2714 264.072 83.336 264.616C83.373 264.918 83.3672 265.191 83.3185 265.435C83.2697 265.678 83.2032 265.942 83.1187 266.226L81.9887 270.021L80.8118 269.212L81.1919 267.936L81.2813 268.316C80.8965 268.555 80.5244 268.664 80.1652 268.643C79.8105 268.621 79.4023 268.451 78.9408 268.134ZM79.594 267.101C79.8412 267.271 80.0638 267.363 80.2616 267.379C80.4638 267.394 80.6338 267.37 80.7715 267.307C80.9125 267.247 81.0142 267.185 81.0767 267.122C81.1962 267.001 81.294 266.833 81.37 266.617C81.4506 266.4 81.5131 266.217 81.5576 266.067L81.919 266.454C81.4972 266.257 81.1548 266.1 80.8916 265.983C80.6295 265.863 80.4164 265.772 80.2522 265.71C80.088 265.648 79.9408 265.602 79.8105 265.573C79.6604 265.544 79.5333 265.537 79.4292 265.553C79.3295 265.568 79.2474 265.604 79.1827 265.661C79.1213 265.72 79.0752 265.802 79.0444 265.905C79.0022 266.047 78.9953 266.19 79.0239 266.335C79.0568 266.477 79.1213 266.614 79.2174 266.745C79.3135 266.876 79.4391 266.994 79.594 267.101ZM83.3733 270.973L85.8901 262.519L87.2351 263.444L84.7183 271.897L83.3733 270.973ZM88.1805 274.277L90.646 265.996L93.3706 267.868C93.7398 268.122 94.0437 268.442 94.2823 268.827C94.5253 269.212 94.6841 269.619 94.7586 270.048C94.8364 270.481 94.8166 270.894 94.699 271.289C94.5666 271.734 94.3418 272.062 94.0247 272.273C93.7087 272.481 93.3549 272.536 92.9632 272.437L93.0256 272.148C93.4447 272.634 93.7333 273.165 93.8917 273.741C94.0544 274.314 94.0513 274.885 93.8824 275.452C93.7409 275.928 93.5287 276.274 93.2458 276.49C92.9673 276.705 92.6425 276.796 92.2712 276.762C91.9011 276.725 91.515 276.568 91.1128 276.292L88.1805 274.277ZM88.9476 274.021L91.1183 275.513C91.4348 275.73 91.7371 275.862 92.0253 275.908C92.3168 275.956 92.5705 275.911 92.7863 275.773C93.0054 275.637 93.1652 275.4 93.2656 275.063C93.3649 274.729 93.387 274.382 93.3317 274.021C93.2809 273.658 93.1652 273.32 92.9845 273.006C92.805 272.689 92.5735 272.433 92.29 272.238L89.956 270.634L88.9476 274.021ZM90.1461 269.996L92.2921 271.471C92.5393 271.64 92.7851 271.729 93.0295 271.735C93.2771 271.743 93.4961 271.675 93.6866 271.528C93.8782 271.378 94.0185 271.154 94.1075 270.855C94.2342 270.429 94.2062 269.997 94.0234 269.557C93.8439 269.12 93.5613 268.768 93.1756 268.503L91.0295 267.028L90.1461 269.996ZM95.679 279.638C95.267 279.355 94.9493 279.035 94.7259 278.678C94.5058 278.324 94.3692 277.962 94.3163 277.593C94.2644 277.22 94.287 276.871 94.384 276.545C94.4891 276.192 94.6396 275.94 94.8356 275.789C95.0349 275.639 95.2618 275.564 95.5161 275.564C95.7738 275.565 96.042 275.618 96.3208 275.722C96.637 275.847 96.9729 275.999 97.3284 276.179C97.6851 276.355 98.023 276.527 98.3421 276.695C98.6646 276.866 98.9276 277.003 99.1312 277.106L98.8807 277.107C99.0937 276.445 99.1333 275.872 98.9995 275.388C98.8702 274.902 98.5171 274.46 97.9402 274.064C97.5348 273.785 97.1682 273.663 96.8406 273.696C96.5174 273.728 96.2368 273.93 95.9989 274.302L95.472 273.711C95.7617 273.232 96.1363 272.967 96.5957 272.918C97.055 272.869 97.5732 273.043 98.1501 273.439C98.6412 273.777 99.0202 274.171 99.2869 274.622C99.557 275.076 99.698 275.549 99.71 276.042C99.717 276.246 99.6973 276.465 99.6508 276.701C99.6056 276.933 99.5498 277.161 99.4836 277.383L98.3313 281.253L97.8122 280.896L98.2984 279.263L98.4741 279.453C98.1459 279.902 97.7357 280.139 97.2433 280.166C96.751 280.192 96.2296 280.016 95.679 279.638ZM95.8902 279.049C96.2528 279.298 96.5932 279.442 96.9113 279.48C97.2306 279.515 97.5148 279.454 97.764 279.297C98.0176 279.139 98.2228 278.89 98.3797 278.55C98.4743 278.366 98.5592 278.154 98.6344 277.915C98.7096 277.675 98.7643 277.498 98.7985 277.383L98.991 277.737C98.7676 277.62 98.5008 277.476 98.1905 277.305C97.8835 277.135 97.5677 276.969 97.243 276.806C96.9183 276.643 96.6193 276.513 96.3459 276.418C96.1761 276.361 95.9978 276.326 95.8111 276.314C95.6287 276.299 95.4603 276.338 95.3057 276.43C95.1545 276.525 95.0412 276.699 94.9658 276.952C94.9099 277.14 94.8935 277.355 94.9167 277.597C94.9432 277.841 95.0321 278.09 95.1835 278.341C95.3349 278.593 95.5704 278.829 95.8902 279.049ZM103.527 284.824L104.489 281.592C104.605 281.201 104.674 280.828 104.697 280.474C104.722 280.122 104.697 279.791 104.623 279.481C104.552 279.173 104.429 278.893 104.254 278.639C104.083 278.387 103.857 278.165 103.577 277.972C103.287 277.773 103.017 277.659 102.767 277.631C102.522 277.601 102.299 277.644 102.098 277.759C101.9 277.877 101.723 278.058 101.567 278.302C101.415 278.544 101.289 278.836 101.187 279.177L100.756 278.805C100.956 278.134 101.217 277.648 101.541 277.349C101.869 277.048 102.23 276.908 102.624 276.93C103.02 276.948 103.426 277.1 103.841 277.385C104.134 277.587 104.382 277.817 104.583 278.075C104.787 278.336 104.948 278.617 105.064 278.919C105.182 279.217 105.26 279.529 105.298 279.855C105.337 280.177 105.339 280.504 105.304 280.836C105.272 281.169 105.208 281.497 105.112 281.819L104.1 285.218L103.527 284.824ZM99.6153 282.135L101.464 275.925L101.984 276.282L101.568 277.679L101.622 277.716L100.189 282.53L99.6153 282.135ZM105.381 286.098L107.846 277.817L108.42 278.212L106.913 283.272L110.33 282.018L111.127 282.565L107.557 283.853L109.653 289.034L108.768 288.426L106.845 283.502L105.955 286.492L105.381 286.098Z" fill="white"/>
</g>
<defs>
<filter id="filter0_bii_2326_6382" x="-4.73821" y="215.315" width="560.337" height="616.752" filterUnits="userSpaceOnUse" color-interpolation-filters="sRGB">
<feFlood flood-opacity="0" result="BackgroundImageFix"/>
<feGaussianBlur in="BackgroundImageFix" stdDeviation="32.1909"/>
<feComposite in2="SourceAlpha" operator="in" result="effect1_backgroundBlur_2326_6382"/>
<feBlend mode="normal" in="SourceGraphic" in2="effect1_backgroundBlur_2326_6382" result="shape"/>
<feColorMatrix in="SourceAlpha" type="matrix" values="0 0 0 0 0 0 0 0 0 0 0 0 0 0 0 0 0 0 127 0" result="hardAlpha"/>
<feOffset dx="-0.515054" dy="-0.515054"/>
<feGaussianBlur stdDeviation="0.386291"/>
<feComposite in2="hardAlpha" operator="arithmetic" k2="-1" k3="1"/>
<feColorMatrix type="matrix" values="0 0 0 0 0 0 0 0 0 0 0 0 0 0 0 0 0 0 0.36 0"/>
<feBlend mode="normal" in2="shape" result="effect2_innerShadow_2326_6382"/>
<feColorMatrix in="SourceAlpha" type="matrix" values="0 0 0 0 0 0 0 0 0 0 0 0 0 0 0 0 0 0 127 0" result="hardAlpha"/>
<feOffset dx="1.28764" dy="1.03011"/>
<feGaussianBlur stdDeviation="0.515054"/>
<feComposite in2="hardAlpha" operator="arithmetic" k2="-1" k3="1"/>
<feColorMatrix type="matrix" values="0 0 0 0 1 0 0 0 0 1 0 0 0 0 1 0 0 0 0.25 0"/>
<feBlend mode="normal" in2="effect2_innerShadow_2326_6382" result="effect3_innerShadow_2326_6382"/>
</filter>
<filter id="filter1_i_2326_6382" x="135.359" y="557.794" width="55.1694" height="63.3252" filterUnits="userSpaceOnUse" color-interpolation-filters="sRGB">
<feFlood flood-opacity="0" result="BackgroundImageFix"/>
<feBlend mode="normal" in="SourceGraphic" in2="BackgroundImageFix" result="shape"/>
<feColorMatrix in="SourceAlpha" type="matrix" values="0 0 0 0 0 0 0 0 0 0 0 0 0 0 0 0 0 0 127 0" result="hardAlpha"/>
<feOffset dx="-0.772581" dy="-0.772581"/>
<feComposite in2="hardAlpha" operator="arithmetic" k2="-1" k3="1"/>
<feColorMatrix type="matrix" values="0 0 0 0 0 0 0 0 0 0 0 0 0 0 0 0 0 0 0.25 0"/>
<feBlend mode="normal" in2="shape" result="effect1_innerShadow_2326_6382"/>
</filter>
<filter id="filter2_bii_2326_6382" x="-59.7304" y="-55.8368" width="540.625" height="603.729" filterUnits="userSpaceOnUse" color-interpolation-filters="sRGB">
<feFlood flood-opacity="0" result="BackgroundImageFix"/>
<feGaussianBlur in="BackgroundImageFix" stdDeviation="32.1909"/>
<feComposite in2="SourceAlpha" operator="in" result="effect1_backgroundBlur_2326_6382"/>
<feBlend mode="normal" in="SourceGraphic" in2="effect1_backgroundBlur_2326_6382" result="shape"/>
<feColorMatrix in="SourceAlpha" type="matrix" values="0 0 0 0 0 0 0 0 0 0 0 0 0 0 0 0 0 0 127 0" result="hardAlpha"/>
<feOffset dx="-0.515054" dy="-0.515054"/>
<feGaussianBlur stdDeviation="0.386291"/>
<feComposite in2="hardAlpha" operator="arithmetic" k2="-1" k3="1"/>
<feColorMatrix type="matrix" values="0 0 0 0 0 0 0 0 0 0 0 0 0 0 0 0 0 0 0.36 0"/>
<feBlend mode="normal" in2="shape" result="effect2_innerShadow_2326_6382"/>
<feColorMatrix in="SourceAlpha" type="matrix" values="0 0 0 0 0 0 0 0 0 0 0 0 0 0 0 0 0 0 127 0" result="hardAlpha"/>
<feOffset dx="1.28764" dy="1.03011"/>
<feGaussianBlur stdDeviation="0.515054"/>
<feComposite in2="hardAlpha" operator="arithmetic" k2="-1" k3="1"/>
<feColorMatrix type="matrix" values="0 0 0 0 1 0 0 0 0 1 0 0 0 0 1 0 0 0 0.25 0"/>
<feBlend mode="normal" in2="effect2_innerShadow_2326_6382" result="effect3_innerShadow_2326_6382"/>
</filter>
<filter id="filter3_i_2326_6382" x="81.0679" y="116.864" width="52.9673" height="62.2812" filterUnits="userSpaceOnUse" color-interpolation-filters="sRGB">
<feFlood flood-opacity="0" result="BackgroundImageFix"/>
<feBlend mode="normal" in="SourceGraphic" in2="BackgroundImageFix" result="shape"/>
<feColorMatrix in="SourceAlpha" type="matrix" values="0 0 0 0 0 0 0 0 0 0 0 0 0 0 0 0 0 0 127 0" result="hardAlpha"/>
<feOffset dx="-0.772581" dy="-0.772581"/>
<feComposite in2="hardAlpha" operator="arithmetic" k2="-1" k3="1"/>
<feColorMatrix type="matrix" values="0 0 0 0 0 0 0 0 0 0 0 0 0 0 0 0 0 0 0.25 0"/>
<feBlend mode="normal" in2="shape" result="effect1_innerShadow_2326_6382"/>
</filter>
<radialGradient id="paint0_radial_2326_6382" cx="0" cy="0" r="1" gradientUnits="userSpaceOnUse" gradientTransform="translate(-8.22845 -5.89196) rotate(60.0023) scale(459.81 289.832)">
<stop stop-color="white" stop-opacity="0.3"/>
<stop offset="1" stop-color="white" stop-opacity="0"/>
</radialGradient>
<linearGradient id="paint1_linear_2326_6382" x1="0" y1="0" x2="49.8787" y2="39.8217" gradientUnits="userSpaceOnUse">
<stop stop-color="#ABABAB"/>
<stop offset="0.3125" stop-color="white"/>
<stop offset="0.630208" stop-color="#BDBDBD"/>
<stop offset="1" stop-color="#5E5E5E"/>
</linearGradient>
<linearGradient id="paint2_linear_2326_6382" x1="134.91" y1="590.669" x2="189.663" y2="593.486" gradientUnits="userSpaceOnUse">
<stop stop-color="#7D7D7D"/>
<stop offset="0.494792" stop-color="white"/>
<stop offset="1" stop-color="#1C1C1C"/>
</linearGradient>
<linearGradient id="paint3_linear_2326_6382" x1="0" y1="0" x2="49.8787" y2="39.8217" gradientUnits="userSpaceOnUse">
<stop stop-color="#ABABAB"/>
<stop offset="0.3125" stop-color="white"/>
<stop offset="0.630208" stop-color="#BDBDBD"/>
<stop offset="1" stop-color="#5E5E5E"/>
</linearGradient>
<linearGradient id="paint4_linear_2326_6382" x1="91.3306" y1="116.449" x2="128.326" y2="175.131" gradientUnits="userSpaceOnUse">
<stop stop-color="#7D7D7D"/>
<stop offset="0.494792" stop-color="white"/>
<stop offset="1" stop-color="#1C1C1C"/>
</linearGradient>
<clipPath id="clip0_2326_6382">
<rect width="419.347" height="264.327" fill="white" transform="matrix(0.760406 -0.649448 0.475931 0.879483 53.0928 543.628)"/>
</clipPath>
<clipPath id="clip1_2326_6382">
<rect width="419.347" height="264.327" fill="white" transform="matrix(0.824126 0.566406 -0.285354 0.958422 75.4985 0.598633)"/>
</clipPath>
</defs>
</svg>
