<svg width="12" height="11" viewBox="0 0 12 11" fill="none" xmlns="http://www.w3.org/2000/svg">
<path d="M11.0893 3.54105L8.25039 0.702134C8.02762 0.479469 7.72552 0.354418 7.41055 0.354492C7.09558 0.354566 6.79354 0.479759 6.57087 0.70253C6.3482 0.925301 6.22315 1.2274 6.22323 1.54237C6.2233 1.85734 6.3485 2.15939 6.57127 2.38205L8.50214 4.31293H1.54102C1.22607 4.31293 0.924026 4.43804 0.701326 4.66074C0.478627 4.88344 0.353516 5.18548 0.353516 5.50043C0.353516 5.81537 0.478627 6.11742 0.701326 6.34012C0.924026 6.56282 1.22607 6.68793 1.54102 6.68793H8.50214L6.57127 8.6188C6.3485 8.84147 6.2233 9.14351 6.22323 9.45848C6.22315 9.77345 6.3482 10.0756 6.57087 10.2983C6.79354 10.5211 7.09558 10.6463 7.41055 10.6464C7.72552 10.6464 8.02762 10.5214 8.25039 10.2987L11.0893 7.4598C11.608 6.93965 11.8993 6.23502 11.8993 5.50043C11.8993 4.76583 11.608 4.0612 11.0893 3.54105Z" fill="white"/>
</svg>
