<svg width="77" height="16" viewBox="0 0 77 16" fill="none" xmlns="http://www.w3.org/2000/svg">
<path d="M0.541504 0C9.37148 0 16.5415 7.17003 16.5415 16H8.5415C8.5415 11.5735 4.96802 8 0.541504 8V0Z" fill="#F5BD01"/>
<path d="M20.5415 16C20.5415 7.17003 27.7115 -3.13412e-07 36.5415 -6.99382e-07L36.5415 8C32.115 8 28.5415 11.5735 28.5415 16L20.5415 16Z" fill="#F5BD01"/>
<path d="M56.5415 0C56.5415 8.82997 49.3715 16 40.5415 16L40.5415 8C44.968 8 48.5415 4.42651 48.5415 -3.49691e-07L56.5415 0Z" fill="#F5BD01"/>
<path d="M60.5415 0C69.3715 0 76.5415 7.17003 76.5415 16H68.5415C68.5415 11.5735 64.968 8 60.5415 8V0Z" fill="#F5BD01"/>
</svg>
