<svg width="77" height="16" viewBox="0 0 77 16" fill="none" xmlns="http://www.w3.org/2000/svg">
<path d="M0.266602 0C9.09657 0 16.2666 7.17003 16.2666 16H8.2666C8.2666 11.5735 4.69311 8 0.266602 8V0Z" fill="#2E2EC8"/>
<path d="M20.2666 16C20.2666 7.17003 27.4366 -3.13412e-07 36.2666 -6.99382e-07L36.2666 8C31.8401 8 28.2666 11.5735 28.2666 16L20.2666 16Z" fill="#F591CE"/>
<path d="M56.2666 0C56.2666 8.82997 49.0966 16 40.2666 16L40.2666 8C44.6931 8 48.2666 4.42651 48.2666 -3.49691e-07L56.2666 0Z" fill="#00D5AE"/>
<path d="M60.2666 0C69.0966 0 76.2666 7.17003 76.2666 16H68.2666C68.2666 11.5735 64.6931 8 60.2666 8V0Z" fill="#F5BD01"/>
</svg>
